<svg xmlns="http://www.w3.org/2000/svg" viewBox="0 0 122.5 122.5"><defs><style>.cls-1{fill:#231f20;}</style></defs><title>Asset 5</title><g id="Layer_2" data-name="Layer 2"><g id="Layer_1-2" data-name="Layer 1"><path class="cls-1" d="M48.54,4,0,0,4,48.54,16.81,35.69,32.52,51.4,51.4,32.52,35.69,16.81ZM43.16,32.52,32.52,43.16,16.81,27.45,8.74,35.52,6.36,6.36,35.52,8.74l-8.07,8.07Z"/><path class="cls-1" d="M32.52,71.1,16.81,86.81,4,74,0,122.5l48.54-4L35.69,105.69,51.4,90Zm3,42.66L6.36,116.14,8.74,87l8.07,8.07L32.52,79.34,43.16,90,27.45,105.69Z"/><path class="cls-1" d="M90,51.4l15.72-15.71,12.85,12.85L122.5,0,74,4,86.81,16.81,71.1,32.52ZM87,8.74l29.16-2.38-2.38,29.16-8.07-8.07L90,43.16,79.34,32.52,95.05,16.81Z"/><path class="cls-1" d="M105.69,86.81,90,71.1,71.1,90l15.71,15.72L74,118.54l48.54,4-4-48.54ZM87,113.76l8.07-8.07L79.34,90,90,79.34l15.72,15.71L113.76,87l2.38,29.16Z"/></g></g></svg>